<?xml version="1.0" encoding="utf-8"?>
<!-- Generator: Adobe Illustrator 16.0.0, SVG Export Plug-In . SVG Version: 6.00 Build 0)  -->
<!DOCTYPE svg PUBLIC "-//W3C//DTD SVG 1.1//EN" "http://www.w3.org/Graphics/SVG/1.1/DTD/svg11.dtd">
<svg version="1.1" id="Layer_1" xmlns="http://www.w3.org/2000/svg" xmlns:xlink="http://www.w3.org/1999/xlink" x="0px" y="0px"
	 width="180px" height="30px" viewBox="0 0 180 30" enable-background="new 0 0 180 30" xml:space="preserve">
<g>
	<path fill="#3596B3" d="M17.7,19.7c0,1.3-0.1,2.3-0.3,3.1c-0.3,1.2-1,2.4-2.2,3.3c-1.5,1.2-3.5,1.9-5.9,1.9c-2.6,0-4.6-0.7-6.1-2
		c-1-0.9-1.7-1.8-1.9-2.8c0-0.1-0.1-0.3-0.1-0.7h5.7c0.2,0.5,0.4,0.8,0.7,1c0.5,0.3,1,0.5,1.7,0.5c1.2,0,2.1-0.4,2.7-1.3
		c0.4-0.5,0.6-1.3,0.6-2.3V19c-0.6,0.6-1.1,1-1.5,1.2c-0.9,0.5-1.9,0.7-3,0.7c-1.5,0-2.8-0.4-3.9-1.1C3,19,2.2,18,1.6,16.6
		C1.1,15.8,1,14.8,1,13.7c0-2.4,0.8-4.3,2.3-5.8c1.4-1.4,3.1-2.1,5.1-2.1c1,0,2,0.2,2.8,0.6c0.5,0.3,1,0.7,1.5,1.3V6.2h5.1
		L17.7,19.7L17.7,19.7z M12.8,13.5c0-0.9-0.3-1.7-0.9-2.4c-0.6-0.7-1.4-1-2.3-1c-1,0-1.9,0.4-2.5,1.2c-0.5,0.6-0.8,1.4-0.8,2.2
		c0,0.9,0.3,1.7,1,2.4c0.6,0.7,1.4,1,2.3,1s1.7-0.3,2.3-1C12.5,15.2,12.8,14.4,12.8,13.5z"/>
	<path fill="#3596B3" d="M45.7,20.7h-5.1v-7.1c0-1.2-0.1-2.1-0.4-2.5c-0.4-0.7-1-1-1.7-1c-0.9,0-1.5,0.4-2,1.1
		c-0.3,0.5-0.5,1.3-0.5,2.5v7.1h-5.1v-7.1c0-1.2-0.1-2.1-0.3-2.4c-0.4-0.7-1.1-1.1-1.9-1.1c-0.8,0-1.4,0.3-1.9,1
		c-0.2,0.2-0.3,0.5-0.4,0.9c-0.1,0.4-0.1,0.9-0.1,1.6v7.1h-5.1V6.3h5.1v1.8c0.6-0.6,1.2-1,1.7-1.3c0.9-0.5,1.9-0.7,3-0.7
		c1.4,0,2.6,0.4,3.6,1.1c0.5,0.4,0.9,0.9,1.4,1.6c0.4-0.6,0.8-1.2,1.3-1.5c1-0.8,2.2-1.2,3.5-1.2c1.1,0,2,0.3,2.9,0.8
		c0.9,0.6,1.5,1.3,1.8,2.3c0.2,0.6,0.2,1.3,0.2,2.2V20.7z"/>
	<path fill="#3596B3" d="M53,19.1c0,0.5-0.2,1-0.5,1.3c-0.4,0.4-0.8,0.5-1.3,0.5s-1-0.2-1.4-0.5c-0.4-0.4-0.6-0.8-0.6-1.3
		s0.2-1,0.6-1.3c0.4-0.4,0.8-0.5,1.4-0.5c0.5,0,1,0.2,1.3,0.5S53,18.6,53,19.1z"/>
	<path fill="#2B3C4D" d="M67.3,20.7v-3.5c-1.1,2.2-3.4,3.8-6.1,3.8c-3.7,0-6.8-3-6.8-6.8c0-3.7,3-6.8,6.8-6.8c2.7,0,5,1.5,6.1,3.8
		V1.4c0-0.2,0.2-0.4,0.4-0.4c0.2,0,0.4,0.2,0.4,0.4v12.7v0.1v0.1v6.4c0,0.2-0.2,0.4-0.4,0.4C67.5,21.1,67.3,20.9,67.3,20.7z
		 M67.3,14.3v-0.2c0-3.3-2.8-6-6.1-6c-3.4,0-6.1,2.7-6.1,6.1c0,3.4,2.7,6.1,6.1,6.1C64.5,20.3,67.3,17.6,67.3,14.3z"/>
	<path fill="#2B3C4D" d="M71.3,14.3c0-3.7,3-6.8,6.8-6.8c3.7,0,6.8,3,6.8,6.8c0,0.2-0.2,0.4-0.4,0.4H72.1c0.2,3.2,2.8,5.7,6.1,5.7
		c2.2,0,4.2-1.2,5.3-3c0.1-0.2,0.3-0.2,0.5-0.1s0.2,0.3,0.1,0.5c-1.2,2.1-3.5,3.4-5.9,3.4C74.4,21.1,71.3,18,71.3,14.3z M84.2,13.9
		c-0.2-3.2-2.8-5.7-6.1-5.7c-3.2,0-5.9,2.5-6.1,5.7H84.2z"/>
	<path fill="#2B3C4D" d="M99.2,8l-5,12.9l0,0l0,0c0,0,0,0.1-0.1,0.1l0,0c0,0,0,0-0.1,0.1l0,0l0,0h-0.1h-0.1l0,0l0,0
		c0,0-0.1,0-0.1-0.1l0,0c0,0,0-0.1-0.1-0.1l0,0l0,0L88.4,8c-0.1-0.2,0-0.4,0.2-0.5c0.2-0.1,0.4,0,0.5,0.2l4.8,12l4.7-12
		c0.1-0.2,0.3-0.3,0.5-0.2C99.2,7.6,99.2,7.8,99.2,8z"/>
	<path fill="#2B3C4D" d="M102.6,14.3c0-3.7,3-6.8,6.8-6.8c3.7,0,6.8,3,6.8,6.8c0,0.2-0.2,0.4-0.4,0.4h-12.5c0.2,3.2,2.8,5.7,6.1,5.7
		c2.2,0,4.2-1.2,5.3-3c0.1-0.2,0.3-0.2,0.5-0.1s0.2,0.3,0.1,0.5c-1.2,2.1-3.5,3.4-5.9,3.4C105.6,21.1,102.6,18,102.6,14.3z
		 M115.4,13.9c-0.2-3.2-2.8-5.7-6.1-5.7c-3.2,0-5.9,2.5-6.1,5.7H115.4z"/>
	<path fill="#2B3C4D" d="M119.5,20.7V1.4c0-0.2,0.2-0.4,0.4-0.4c0.2,0,0.4,0.2,0.4,0.4v19.3c0,0.2-0.2,0.4-0.4,0.4
		C119.7,21.1,119.5,20.9,119.5,20.7z"/>
	<path fill="#2B3C4D" d="M123.5,14.3c0-3.7,3-6.8,6.8-6.8c3.7,0,6.8,3,6.8,6.8c0,3.7-3,6.8-6.8,6.8C126.6,21.1,123.5,18,123.5,14.3z
		 M124.2,14.3c0,3.4,2.7,6.1,6.1,6.1c3.4,0,6.1-2.7,6.1-6.1c0-3.4-2.7-6.1-6.1-6.1C127,8.2,124.2,10.9,124.2,14.3z"/>
	<path fill="#2B3C4D" d="M140.4,25V7.5h6.8c3.7,0,6.8,3,6.8,6.8c0,3.7-3,6.8-6.8,6.8c-2.7,0-5-1.5-6.1-3.8V25c0,0.2-0.2,0.4-0.4,0.4
		C140.6,25.4,140.4,25.2,140.4,25z M147.2,20.4c3.4,0,6.1-2.7,6.1-6.1c0-3.4-2.7-6.1-6.1-6.1h-6.1v6.1
		C141.2,17.6,143.9,20.4,147.2,20.4z"/>
	<path fill="#2B3C4D" d="M157.4,14.3c0-3.7,3-6.8,6.8-6.8c3.7,0,6.8,3,6.8,6.8c0,0.2-0.2,0.4-0.4,0.4h-12.5c0.2,3.2,2.8,5.7,6.1,5.7
		c2.2,0,4.2-1.2,5.3-3c0.1-0.2,0.3-0.2,0.5-0.1s0.2,0.3,0.1,0.5c-1.2,2.1-3.5,3.4-5.9,3.4C160.4,21.1,157.4,18,157.4,14.3z
		 M170.2,13.9c-0.2-3.2-2.8-5.7-6.1-5.7c-3.3,0-5.9,2.5-6.1,5.7H170.2z"/>
	<path fill="#2B3C4D" d="M175,9.7c0.8-1.3,2.3-2.2,3.9-2.2c0.2,0,0.4,0.2,0.4,0.4c0,0.2-0.2,0.4-0.4,0.4c-2.2,0-3.9,1.8-3.9,3.9v8.6
		c0,0.2-0.2,0.4-0.4,0.4c-0.2,0-0.4-0.2-0.4-0.4V7.9c0-0.2,0.2-0.4,0.4-0.4c0.2,0,0.4,0.2,0.4,0.4V9.7z"/>
</g>
</svg>
